<?xml version="1.0" encoding="utf-8"?>
<!-- Generator: Adobe Illustrator 19.2.1, SVG Export Plug-In . SVG Version: 6.00 Build 0)  -->
<svg version="1.1" id="Layer_1" xmlns="http://www.w3.org/2000/svg" xmlns:xlink="http://www.w3.org/1999/xlink" x="0px" y="0px"
	 viewBox="0 0 16 16" style="enable-background:new 0 0 16 16;" xml:space="preserve">
<path fill="#BDBDBD" d="M12,0H0v10h4h1l0,0V9l0,0V7l0,0V6l0,0V4h8V3V0H12z M1,1h3v2H1V1z M4,9H1V7h3V9z M4,6H1V4h3V6z M5,3V1h3v2H5z
	 M9,3V1h3v2H9z"/>
<g>
	<path fill="#757575" d="M4,3v13h12V3H4z M15,15H5V4h10V15z"/>
	<rect x="6" y="8" fill="#757575" width="8" height="1"/>
	<rect x="6" y="10" fill="#757575" width="8" height="1"/>
	<rect x="6" y="12" fill="#757575" width="8" height="1"/>
	<rect x="6" y="6" fill="#757575" width="8" height="1"/>
</g>
</svg>
